<svg id="Livello_1" data-name="Livello 1" xmlns="http://www.w3.org/2000/svg" viewBox="0 0 266.71 128.92"><defs><style>.cls-1{fill:#6c757d;}.cls-2{fill:#b3cd31;}</style></defs><title>logo</title><path class="cls-1" d="M62.24,205.29V192.53h4.17a16,16,0,0,1,3.1.19A3.37,3.37,0,0,1,71.36,194a3.93,3.93,0,0,1,.75,2.49,4.07,4.07,0,0,1-.43,2,3.4,3.4,0,0,1-1.1,1.26,3.7,3.7,0,0,1-1.35.61,15.17,15.17,0,0,1-2.69.18h-1.7v4.81Zm2.6-10.6v3.62h1.42a6.94,6.94,0,0,0,2.06-.2,1.6,1.6,0,0,0,.81-.63,1.66,1.66,0,0,0,.3-1,1.63,1.63,0,0,0-.42-1.15,1.75,1.75,0,0,0-1-.56,12.24,12.24,0,0,0-1.87-.09Z" transform="translate(-8.37 -76.59)"/><path class="cls-1" d="M86.86,205.29V192.53h5.48a9.44,9.44,0,0,1,3,.35,2.92,2.92,0,0,1,1.5,1.22,3.66,3.66,0,0,1,.56,2,3.36,3.36,0,0,1-.85,2.37A4.13,4.13,0,0,1,94,199.66a6.29,6.29,0,0,1,1.39,1.07,14.34,14.34,0,0,1,1.48,2.07l1.58,2.49H95.33l-1.88-2.77a17.35,17.35,0,0,0-1.37-1.88,2,2,0,0,0-.78-.53A4.17,4.17,0,0,0,90,200h-.53v5.33Zm2.6-7.36h1.93a9.61,9.61,0,0,0,2.33-.16,1.3,1.3,0,0,0,.73-.54,1.6,1.6,0,0,0,.27-1,1.54,1.54,0,0,0-.35-1,1.62,1.62,0,0,0-1-.5c-.21,0-.84,0-1.9,0h-2Z" transform="translate(-8.37 -76.59)"/><path class="cls-1" d="M111.93,199a8.07,8.07,0,0,1,.59-3.27,5.81,5.81,0,0,1,1.2-1.75,5,5,0,0,1,1.66-1.15,7.11,7.11,0,0,1,2.78-.51,6.11,6.11,0,0,1,4.56,1.75,6.68,6.68,0,0,1,1.71,4.87,6.59,6.59,0,0,1-1.7,4.83,6,6,0,0,1-4.53,1.75,6.08,6.08,0,0,1-4.57-1.74A6.5,6.5,0,0,1,111.93,199Zm2.68-.09a4.78,4.78,0,0,0,1,3.29,3.34,3.34,0,0,0,2.57,1.12,3.26,3.26,0,0,0,2.55-1.11,4.82,4.82,0,0,0,1-3.33,4.73,4.73,0,0,0-1-3.27,3.62,3.62,0,0,0-5.17,0A4.76,4.76,0,0,0,114.61,198.9Z" transform="translate(-8.37 -76.59)"/><path class="cls-1" d="M143.72,192.53h2.59v8.08a8.1,8.1,0,0,1-.28,2.44,3.41,3.41,0,0,1-1.37,1.78,4.59,4.59,0,0,1-2.62.68,3.91,3.91,0,0,1-2.94-1.06,4.34,4.34,0,0,1-1-3.1l2.46-.28a3.36,3.36,0,0,0,.32,1.55,1.41,1.41,0,0,0,1.29.69,1.45,1.45,0,0,0,1.23-.49,3.87,3.87,0,0,0,.36-2Z" transform="translate(-8.37 -76.59)"/><path class="cls-1" d="M161.68,205.29V192.53h9.56v2.16h-7v2.83h6.47v2.15h-6.47v3.47h7.2v2.15Z" transform="translate(-8.37 -76.59)"/><path class="cls-1" d="M194.54,200.6l2.53.79a5.7,5.7,0,0,1-9.58,2.38,6.6,6.6,0,0,1-1.65-4.75,6.9,6.9,0,0,1,1.66-4.94,5.73,5.73,0,0,1,4.37-1.77,5.35,5.35,0,0,1,3.84,1.39,4.94,4.94,0,0,1,1.32,2.35l-2.57.61a2.72,2.72,0,0,0-1-1.57,2.75,2.75,0,0,0-1.76-.57,3,3,0,0,0-2.33,1,5,5,0,0,0-.89,3.3,5.28,5.28,0,0,0,.88,3.45,2.89,2.89,0,0,0,2.29,1,2.6,2.6,0,0,0,1.78-.66A3.71,3.71,0,0,0,194.54,200.6Z" transform="translate(-8.37 -76.59)"/><path class="cls-1" d="M214.81,205.29v-10.6H211v-2.16h10.24v2.16h-3.81v10.6Z" transform="translate(-8.37 -76.59)"/><path class="cls-1" d="M21.89,173.7v-4.3H33.66v10.17a15,15,0,0,1-5,2.75,18.94,18.94,0,0,1-6.59,1.2,15.51,15.51,0,0,1-7.4-1.68A11,11,0,0,1,10,177a14.77,14.77,0,0,1-1.59-6.8,14,14,0,0,1,1.77-7.08,11.59,11.59,0,0,1,5.19-4.75,14.62,14.62,0,0,1,6.47-1.28q5,0,7.87,2a8.92,8.92,0,0,1,3.64,5.51l-5.42,1a5.38,5.38,0,0,0-2.15-3,6.73,6.73,0,0,0-3.94-1.09,7.63,7.63,0,0,0-5.69,2.14Q14,165.82,14,170q0,4.54,2.14,6.82a7.36,7.36,0,0,0,5.61,2.27,10,10,0,0,0,3.44-.63,12.46,12.46,0,0,0,3-1.54V173.7Z" transform="translate(-8.37 -76.59)"/><path class="cls-1" d="M63.09,183.08H57.15l-2.36-5.79H44l-2.24,5.79H36l10.54-25.52h5.77ZM53,173l-3.72-9.47L45.66,173Z" transform="translate(-8.37 -76.59)"/><path class="cls-1" d="M66.13,183.08V157.77h5.46v21H85.17v4.3Z" transform="translate(-8.37 -76.59)"/><path class="cls-1" d="M113.45,183.08h-5.94l-2.36-5.79H94.34l-2.23,5.79h-5.8l10.54-25.52h5.77Zm-10-10.1-3.73-9.47L96,173Z" transform="translate(-8.37 -76.59)"/><path class="cls-1" d="M113.6,183.08l9.24-13.32-8.37-12.2h6.38l5.42,8.2,5.31-8.2h6.33L129.5,170l9.24,13.13h-6.58l-6-8.82-6,8.82Z" transform="translate(-8.37 -76.59)"/><path class="cls-1" d="M148.65,183.08V172.34l-9.91-14.78h6.4l6.37,10.1,6.23-10.1H164l-9.94,14.82v10.7Z" transform="translate(-8.37 -76.59)"/><path class="cls-1" d="M166.8,183.08V157.56h5.31l11.07,17v-17h5.07v25.52h-5.47l-10.91-16.64v16.64Z" transform="translate(-8.37 -76.59)"/><path class="cls-1" d="M194,183.08V157.56h20.05v4.32H199.49v5.66h13.58v4.3H199.49v6.94H214.6v4.3Z" transform="translate(-8.37 -76.59)"/><path class="cls-1" d="M219.15,183.08V157.56h8.18l4.9,17.41,4.85-17.41h8.2v25.52H240.2V163l-5.36,20.09h-5.26L224.23,163v20.09Z" transform="translate(-8.37 -76.59)"/><path class="cls-1" d="M275.09,183.08h-5.94l-2.36-5.79H256l-2.24,5.79H248l10.53-25.52h5.78ZM265,173l-3.72-9.47L257.65,173Z" transform="translate(-8.37 -76.59)"/><path class="cls-2" d="M148.71,147.14a34,34,0,1,1,0-68A34.62,34.62,0,0,1,164,82.65a37.19,37.19,0,0,0-20.42-6.06,36.55,36.55,0,1,0,0,73.1A37.19,37.19,0,0,0,164,143.63,34.62,34.62,0,0,1,148.71,147.14Z" transform="translate(-8.37 -76.59)"/><path class="cls-1" d="M147.58,127.81a6.93,6.93,0,1,1-6.93-7A7,7,0,0,1,147.58,127.81Z" transform="translate(-8.37 -76.59)"/><path class="cls-1" d="M135.73,119.21a6.9,6.9,0,0,1-9.47-2.57,7,7,0,0,1,2.54-9.57,6.9,6.9,0,0,1,9.47,2.57A7,7,0,0,1,135.73,119.21Z" transform="translate(-8.37 -76.59)"/><path class="cls-1" d="M137.19,104.54A7,7,0,0,1,134.65,95a6.89,6.89,0,0,1,9.47-2.56,7,7,0,0,1,2.54,9.56A6.9,6.9,0,0,1,137.19,104.54Z" transform="translate(-8.37 -76.59)"/><path class="cls-1" d="M150.49,98.47a6.93,6.93,0,1,1,6.93,7A7,7,0,0,1,150.49,98.47Z" transform="translate(-8.37 -76.59)"/><path class="cls-1" d="M162.34,107.07a6.9,6.9,0,0,1,9.47,2.57,7,7,0,0,1-2.54,9.56,6.89,6.89,0,0,1-9.47-2.56A7,7,0,0,1,162.34,107.07Z" transform="translate(-8.37 -76.59)"/><path class="cls-1" d="M160.88,121.74a7,7,0,0,1,2.54,9.57,6.89,6.89,0,0,1-9.47,2.56,7,7,0,0,1-2.54-9.56A6.9,6.9,0,0,1,160.88,121.74Z" transform="translate(-8.37 -76.59)"/><path class="cls-1" d="M152.87,113.86a1.52,1.52,0,1,1-1.5,1.51A1.51,1.51,0,0,1,152.87,113.86Z" transform="translate(-8.37 -76.59)"/><path class="cls-1" d="M150.33,116.86a1.52,1.52,0,0,1-.54,2.07,1.5,1.5,0,0,1-2-.56,1.52,1.52,0,0,1,.54-2.07A1.49,1.49,0,0,1,150.33,116.86Z" transform="translate(-8.37 -76.59)"/><path class="cls-1" d="M146.5,116.13a1.49,1.49,0,0,1-2.05.56,1.53,1.53,0,0,1-.55-2.07,1.5,1.5,0,0,1,2-.56A1.53,1.53,0,0,1,146.5,116.13Z" transform="translate(-8.37 -76.59)"/><path class="cls-1" d="M145.2,112.42a1.52,1.52,0,1,1,1.5-1.52A1.51,1.51,0,0,1,145.2,112.42Z" transform="translate(-8.37 -76.59)"/><path class="cls-1" d="M147.74,109.42a1.52,1.52,0,0,1,.54-2.07,1.49,1.49,0,0,1,2.05.56,1.52,1.52,0,0,1-.54,2.07A1.49,1.49,0,0,1,147.74,109.42Z" transform="translate(-8.37 -76.59)"/><path class="cls-1" d="M151.57,110.15a1.49,1.49,0,0,1,2.05-.56,1.53,1.53,0,0,1,.55,2.07,1.49,1.49,0,0,1-2,.55A1.51,1.51,0,0,1,151.57,110.15Z" transform="translate(-8.37 -76.59)"/><path class="cls-1" d="M149,86.46a26.68,26.68,0,1,1-26.41,26.68A26.57,26.57,0,0,1,149,86.46M149,85a28.17,28.17,0,1,0,27.88,28.17A28,28,0,0,0,149,85Z" transform="translate(-8.37 -76.59)"/></svg>